<?xml version="1.0" encoding="utf-8"?>
<!-- Generator: Adobe Illustrator 19.0.0, SVG Export Plug-In . SVG Version: 6.00 Build 0)  -->
<svg version="1.1" id="steeringwheel" xmlns="http://www.w3.org/2000/svg" xmlns:xlink="http://www.w3.org/1999/xlink" x="0px"
	 y="0px" viewBox="0 0 518.3 503.8" style="enable-background:new 0 0 518.3 503.8;" xml:space="preserve">
<style type="text/css">
	.st0{fill:none;stroke:#FFFFFF;stroke-width:5;stroke-miterlimit:10;}
	.st1{fill:none;stroke:#FFFFFF;stroke-width:4;stroke-miterlimit:10;}
	.st2{fill:none;}
	.st3{stroke:#FFFFFF;stroke-miterlimit:10;}
	.st4{font-family:'Roboto-Regular';}
	.st5{font-size:12px;}

	@keyframes spin {
    from {transform:rotate(0deg);}
    to {transform:rotate(360deg);}
}

@keyframes fadeIn {
    0% {
        opacity: .25;
    }

    50% {
        opacity: .5;
    }
  
    75% {
        opacity: .75;
    }
  
    100% {
        opacity: .5;
    }
}


.svg-container {
  height:100%;
  width:100%;
  max-height:15rem;
  max-width:15rem;
  margin: 0 auto;
}

svg {  
  position: absolute;
  max-height:15cm;
  max-width:15cm;
  width: 20%;
  height: 20%;
  fill: #50c6db;
  transform: translate(50%, 50%);
}

#steeringwheel {
  animation: spin 2s infinite linear;
}
</style>
<circle id="XMLID_1_" class="st0" cx="259.3" cy="252.5" r="77.5"/>
<circle id="XMLID_5_" class="st0" cx="259.3" cy="252.5" r="57.5"/>
<path id="XMLID_6_" class="st1" d="M187.8,294.6c-5.6-8.9-15.2-27.2-12.7-49.3c1.4-11.9,5.9-21.9,8.7-28c5.2-11.5,11.3-20.1,16-26"
	/>
<path id="XMLID_7_" class="st0" d="M111.8,113.3C87.7,147.6,56,198.6,69.8,214c6.5,7.2,22.7,4.3,54.7-2
	c32.4-6.3,58.2-14.5,75.3-20.7"/>
<line id="XMLID_8_" class="st0" x1="69.8" y1="80" x2="111.8" y2="113.3"/>
<path id="XMLID_9_" class="st0" d="M53.8,402C40.3,384.1,3.2,330.2,2.5,252.6C1.7,157.1,56.8,94.1,69.8,80"/>
<path id="XMLID_10_" class="st0" d="M96.5,371.3c-14,9.6-28,19.1-42,28.7"/>
<path id="XMLID_11_" class="st0" d="M96.5,371.3c-5.8-5.8-15.8-17.6-21.3-35.3c-2.2-7.1-7.8-25.1-2.7-36
	c9.2-19.5,56.3-23.4,115.3-5.3"/>
<path id="XMLID_17_" class="st1" d="M330.5,294.6c5.6-8.9,15.2-27.2,12.7-49.3c-1.4-11.9-5.9-21.9-8.7-28c-5.2-11.5-11.3-20.1-16-26
	"/>
<path id="XMLID_16_" class="st0" d="M406.5,113.3c24.1,34.3,55.9,85.3,42,100.7c-6.5,7.2-22.7,4.3-54.7-2
	c-32.4-6.3-58.2-14.5-75.3-20.7"/>
<line id="XMLID_15_" class="st0" x1="448.5" y1="80" x2="406.5" y2="113.3"/>
<path id="XMLID_14_" class="st0" d="M464.5,402c13.6-17.9,50.7-71.7,51.3-149.3c0.8-95.6-54.3-158.5-67.3-172.7"/>
<path id="XMLID_13_" class="st0" d="M421.8,371.3c14,9.6,28,19.1,42,28.7"/>
<path id="XMLID_12_" class="st0" d="M421.8,371.3c5.8-5.8,15.8-17.6,21.3-35.3c2.2-7.1,7.8-25.1,2.7-36
	c-9.2-19.5-56.3-23.4-115.3-5.3"/>
<path id="XMLID_18_" class="st0" d="M81.2,78.6c14.8-15,70.6-68.1,159.3-75.3c112.7-9.2,188.1,62.9,199.3,74"/>
<path id="XMLID_19_" class="st0" d="M407.2,102.6c11.1-8.4,22.2-16.9,33.3-25.3"/>
<path id="XMLID_20_" class="st0" d="M113.2,105.3c11.5-11.2,61.5-57.4,140-60c88-2.9,144.9,51.1,154.7,60.7"/>
<path id="XMLID_21_" class="st0" d="M115.2,105.3c-11.3-8.9-22.7-17.8-34-26.7"/>
<path id="XMLID_25_" class="st0" d="M61.8,401.3c9.5,12.5,71.7,91.4,181.3,99.3c128.7,9.3,208.5-87.4,215.3-96"/>
<path id="XMLID_24_" class="st0" d="M423.2,381.3c11.6,7.8,23.1,15.6,34.7,23.3"/>
<path id="XMLID_23_" class="st0" d="M95.8,382c8.7,10.6,60.2,72,148.7,78c105.7,7.2,171.7-70.9,178-78.7"/>
<path id="XMLID_22_" class="st0" d="M96.5,381.3c-10.9,6.9-21.8,13.8-32.7,20.7"/>
<path id="XMLID_26_" class="st1" d="M219.8,327.3c6.4,3.5,21.2,10.6,41.3,10c21-0.6,36-9.3,42-13.3c-16.2,48.6-23,91.3-4,106.7
	c12.6,10.2,32.9,5.3,33.2,8.8c0.4,4.6-34.8,14.7-74.5,14.5c-36.5-0.1-69-8.8-68.7-13.3c0.2-3.5,19.6,0.5,32-9.3
	C239.3,416.9,235.7,378,219.8,327.3z"/>
<rect id="XMLID_2_" x="229.5" y="246.3" class="st2" width="58" height="15.2"/>
<text id="XMLID_3_" transform="matrix(1 0 0 1 229.5084 255.3064)" class="st3 st4 st5">CAR POOL</text>
</svg>
